<svg width="12" height="13" viewBox="0 0 12 13" fill="none" xmlns="http://www.w3.org/2000/svg">
<path d="M8.59835 8.5375C8.97648 8.33438 9.40929 8.21875 9.87023 8.21875H9.87179C9.91867 8.21875 9.94054 8.1625 9.90617 8.13125C9.42681 7.70106 8.87924 7.35361 8.28585 7.10312C8.2796 7.1 8.27335 7.09844 8.2671 7.09531C9.23742 6.39062 9.86867 5.24531 9.86867 3.95312C9.86867 1.8125 8.13742 0.078125 6.00148 0.078125C3.86554 0.078125 2.13585 1.8125 2.13585 3.95312C2.13585 5.24531 2.7671 6.39062 3.73898 7.09531C3.73273 7.09844 3.72648 7.1 3.72023 7.10312C3.02179 7.39844 2.39523 7.82188 1.85617 8.3625C1.32022 8.89748 0.893532 9.53167 0.599917 10.2297C0.311031 10.9132 0.155122 11.6456 0.140542 12.3875C0.140125 12.4042 0.14305 12.4208 0.149145 12.4363C0.15524 12.4518 0.164381 12.466 0.17603 12.4779C0.187679 12.4899 0.2016 12.4993 0.216974 12.5058C0.232347 12.5123 0.24886 12.5156 0.265542 12.5156H1.20148C1.26867 12.5156 1.32492 12.4609 1.32648 12.3938C1.35773 11.1875 1.84054 10.0578 2.69523 9.20156C3.57804 8.31563 4.75304 7.82812 6.00304 7.82812C6.88898 7.82812 7.73898 8.07344 8.47179 8.53281C8.49062 8.54464 8.51223 8.5513 8.53444 8.55213C8.55666 8.55295 8.57871 8.5479 8.59835 8.5375ZM6.00304 6.64062C5.28742 6.64062 4.61398 6.36094 4.10617 5.85313C3.85632 5.60392 3.65824 5.30774 3.52335 4.98165C3.38847 4.65557 3.31943 4.30601 3.32023 3.95312C3.32023 3.23594 3.59992 2.56094 4.10617 2.05312C4.61242 1.54531 5.28585 1.26562 6.00304 1.26562C6.72023 1.26562 7.3921 1.54531 7.89992 2.05312C8.14977 2.30233 8.34784 2.59851 8.48273 2.9246C8.61762 3.25068 8.68665 3.60024 8.68585 3.95312C8.68585 4.67031 8.40617 5.34531 7.89992 5.85313C7.3921 6.36094 6.71867 6.64062 6.00304 6.64062ZM11.7499 10.3594H10.4374V9.04688C10.4374 8.97812 10.3812 8.92188 10.3124 8.92188H9.43742C9.36867 8.92188 9.31242 8.97812 9.31242 9.04688V10.3594H7.99992C7.93117 10.3594 7.87492 10.4156 7.87492 10.4844V11.3594C7.87492 11.4281 7.93117 11.4844 7.99992 11.4844H9.31242V12.7969C9.31242 12.8656 9.36867 12.9219 9.43742 12.9219H10.3124C10.3812 12.9219 10.4374 12.8656 10.4374 12.7969V11.4844H11.7499C11.8187 11.4844 11.8749 11.4281 11.8749 11.3594V10.4844C11.8749 10.4156 11.8187 10.3594 11.7499 10.3594Z" fill="#595959"/>
</svg>
