<svg width="13" height="12" viewBox="0 0 13 12" fill="none" xmlns="http://www.w3.org/2000/svg">
<path d="M7.63722 6L12.4072 0.499805C12.4872 0.408399 12.42 0.269531 12.2964 0.269531H10.8463C10.7609 0.269531 10.6791 0.306445 10.6228 0.369727L6.68867 4.90664L2.75454 0.369727C2.70002 0.306445 2.61825 0.269531 2.53103 0.269531H1.08094C0.957376 0.269531 0.890142 0.408399 0.970096 0.499805L5.74011 6L0.970096 11.5002C0.952186 11.5206 0.940695 11.5455 0.936989 11.572C0.933283 11.5985 0.937516 11.6255 0.949187 11.6497C0.960858 11.674 0.979476 11.6945 1.00283 11.7088C1.02619 11.7231 1.0533 11.7306 1.08094 11.7305H2.53103C2.61643 11.7305 2.69821 11.6936 2.75454 11.6303L6.68867 7.09336L10.6228 11.6303C10.6773 11.6936 10.7591 11.7305 10.8463 11.7305H12.2964C12.42 11.7305 12.4872 11.5916 12.4072 11.5002L7.63722 6Z" fill="#BFBFBF"/>
</svg>
